<svg width="223" height="34" viewBox="0 0 223 34" fill="none" xmlns="http://www.w3.org/2000/svg">
<path d="M11.483 33H0.65483V2.45454H11.5724C14.6449 2.45454 17.2898 3.06605 19.5071 4.28906C21.7244 5.50213 23.4297 7.24716 24.6229 9.52415C25.826 11.8011 26.4276 14.5256 26.4276 17.6974C26.4276 20.8793 25.826 23.6136 24.6229 25.9006C23.4297 28.1875 21.7145 29.9425 19.4773 31.1655C17.25 32.3885 14.5852 33 11.483 33ZM7.11293 27.4666H11.2145C13.1236 27.4666 14.7294 27.1286 16.032 26.4524C17.3445 25.7663 18.3288 24.7074 18.9851 23.2756C19.6513 21.8338 19.9844 19.9744 19.9844 17.6974C19.9844 15.4403 19.6513 13.5959 18.9851 12.1641C18.3288 10.7322 17.3494 9.67827 16.0469 9.00213C14.7443 8.32599 13.1385 7.98793 11.2294 7.98793H7.11293V27.4666ZM41.5325 33.4474C39.176 33.4474 37.1475 32.9702 35.4473 32.0156C33.7569 31.0511 32.4544 29.6889 31.5396 27.929C30.6248 26.1591 30.1674 24.0661 30.1674 21.6499C30.1674 19.2933 30.6248 17.2251 31.5396 15.4453C32.4544 13.6655 33.742 12.2784 35.4025 11.2841C37.073 10.2898 39.0318 9.79261 41.2789 9.79261C42.7903 9.79261 44.1973 10.0362 45.4998 10.5234C46.8123 11.0007 47.9558 11.7216 48.9302 12.6861C49.9146 13.6506 50.6802 14.8636 51.2271 16.3253C51.774 17.777 52.0474 19.4773 52.0474 21.4261V23.1712H32.7029V19.2337H46.0666C46.0666 18.3189 45.8677 17.5085 45.47 16.8026C45.0723 16.0966 44.5204 15.5447 43.8145 15.147C43.1184 14.7393 42.3081 14.5355 41.3833 14.5355C40.4189 14.5355 39.5637 14.7592 38.818 15.2067C38.0822 15.6442 37.5055 16.2358 37.0879 16.9815C36.6703 17.7173 36.4565 18.5376 36.4466 19.4425V23.1861C36.4466 24.3196 36.6554 25.299 37.073 26.1243C37.5005 26.9496 38.1021 27.5859 38.8777 28.0334C39.6532 28.4808 40.573 28.7045 41.6369 28.7045C42.3429 28.7045 42.9892 28.6051 43.5758 28.4062C44.1625 28.2074 44.6646 27.9091 45.0822 27.5114C45.4998 27.1136 45.818 26.6264 46.0368 26.0497L51.9132 26.4375C51.6149 27.8494 51.0034 29.0824 50.0787 30.1364C49.1639 31.1804 47.9806 31.9957 46.5289 32.5824C45.0872 33.1591 43.4217 33.4474 41.5325 33.4474ZM66.0337 33V2.45454H78.2638C80.511 2.45454 82.3853 2.78764 83.8867 3.45383C85.3881 4.12003 86.5167 5.04474 87.2724 6.22798C88.0281 7.40128 88.4059 8.75355 88.4059 10.2848C88.4059 11.478 88.1673 12.527 87.69 13.4318C87.2127 14.3267 86.5565 15.0625 85.7212 15.6392C84.896 16.206 83.9514 16.6087 82.8874 16.8473V17.1456C84.0508 17.1953 85.1396 17.5234 86.1538 18.13C87.1779 18.7365 88.0082 19.5866 88.6445 20.6804C89.2809 21.7642 89.5991 23.0568 89.5991 24.5582C89.5991 26.179 89.1964 27.6257 88.391 28.8984C87.5955 30.1612 86.4173 31.1605 84.8562 31.8963C83.2951 32.6321 81.3711 33 79.0842 33H66.0337ZM72.4918 27.7202H77.7567C79.5565 27.7202 80.869 27.3771 81.6942 26.6911C82.5195 25.995 82.9322 25.0703 82.9322 23.9169C82.9322 23.0717 82.7283 22.326 82.3207 21.6797C81.913 21.0334 81.3313 20.5263 80.5756 20.1584C79.8299 19.7905 78.94 19.6065 77.9059 19.6065H72.4918V27.7202ZM72.4918 15.2365H77.2795C78.1644 15.2365 78.9499 15.0824 79.636 14.7741C80.332 14.456 80.8789 14.0085 81.2766 13.4318C81.6843 12.8551 81.8881 12.1641 81.8881 11.3587C81.8881 10.255 81.4954 9.36506 80.7099 8.68892C79.9343 8.01278 78.8306 7.67471 77.3988 7.67471H72.4918V15.2365ZM100.215 33.4325C98.753 33.4325 97.4505 33.179 96.307 32.6719C95.1635 32.1548 94.2587 31.3942 93.5925 30.3899C92.9363 29.3757 92.6081 28.1129 92.6081 26.6016C92.6081 25.3288 92.8418 24.2599 93.3091 23.3949C93.7765 22.5298 94.4128 21.8338 95.2182 21.3068C96.0236 20.7798 96.9384 20.3821 97.9625 20.1136C98.9966 19.8452 100.08 19.6562 101.214 19.5469C102.546 19.4077 103.62 19.2784 104.436 19.1591C105.251 19.0298 105.843 18.8409 106.21 18.5923C106.578 18.3437 106.762 17.9759 106.762 17.4886V17.3991C106.762 16.4545 106.464 15.7237 105.867 15.2067C105.281 14.6896 104.445 14.4311 103.362 14.4311C102.218 14.4311 101.308 14.6847 100.632 15.1918C99.9561 15.6889 99.5087 16.3153 99.29 17.071L93.4135 16.5938C93.7118 15.2017 94.2985 13.9986 95.1735 12.9844C96.0485 11.9602 97.177 11.1747 98.5591 10.6278C99.9512 10.071 101.562 9.79261 103.392 9.79261C104.664 9.79261 105.882 9.94176 107.046 10.2401C108.219 10.5384 109.258 11.0007 110.163 11.6271C111.078 12.2536 111.798 13.0589 112.325 14.0433C112.852 15.0178 113.116 16.1861 113.116 17.5483V33H107.09V29.8232H106.911C106.544 30.5391 106.051 31.1705 105.435 31.7173C104.818 32.2543 104.078 32.6768 103.213 32.9851C102.347 33.2834 101.348 33.4325 100.215 33.4325ZM102.034 29.0476C102.969 29.0476 103.794 28.8636 104.51 28.4957C105.226 28.1179 105.788 27.6108 106.195 26.9744C106.603 26.3381 106.807 25.6172 106.807 24.8118V22.3807C106.608 22.5099 106.335 22.6293 105.987 22.7386C105.649 22.8381 105.266 22.9325 104.838 23.022C104.411 23.1016 103.983 23.1761 103.556 23.2457C103.128 23.3054 102.74 23.3601 102.392 23.4098C101.646 23.5192 100.995 23.6932 100.438 23.9318C99.8816 24.1705 99.449 24.4936 99.1408 24.9013C98.8326 25.299 98.6784 25.7962 98.6784 26.3928C98.6784 27.2578 98.9917 27.919 99.6181 28.3764C100.254 28.8239 101.06 29.0476 102.034 29.0476ZM118.045 33V10.0909H124.205V14.0881H124.444C124.861 12.6662 125.562 11.5923 126.547 10.8665C127.531 10.1307 128.665 9.76278 129.947 9.76278C130.265 9.76278 130.608 9.78267 130.976 9.82244C131.344 9.86222 131.667 9.9169 131.946 9.9865V15.6243C131.648 15.5348 131.235 15.4553 130.708 15.3857C130.181 15.3161 129.699 15.2812 129.261 15.2812C128.327 15.2812 127.491 15.4851 126.756 15.8928C126.03 16.2905 125.453 16.8473 125.025 17.5632C124.608 18.2791 124.399 19.1044 124.399 20.0391V33H118.045ZM135.35 33V2.45454H141.704V13.9389H141.898C142.176 13.3224 142.579 12.696 143.106 12.0597C143.643 11.4134 144.339 10.8764 145.194 10.4489C146.059 10.0114 147.133 9.79261 148.415 9.79261C150.086 9.79261 151.627 10.2301 153.039 11.1051C154.451 11.9702 155.58 13.2777 156.425 15.0277C157.27 16.7678 157.692 18.9503 157.692 21.5753C157.692 24.1307 157.28 26.2884 156.455 28.0483C155.639 29.7983 154.526 31.1257 153.114 32.0305C151.712 32.9254 150.141 33.3729 148.401 33.3729C147.168 33.3729 146.119 33.169 145.254 32.7614C144.398 32.3537 143.697 31.8416 143.151 31.2251C142.604 30.5987 142.186 29.9673 141.898 29.331H141.614V33H135.35ZM141.57 21.5455C141.57 22.9077 141.759 24.0959 142.136 25.1101C142.514 26.1243 143.061 26.9148 143.777 27.4815C144.493 28.0384 145.363 28.3168 146.387 28.3168C147.421 28.3168 148.296 28.0334 149.012 27.4666C149.728 26.8899 150.27 26.0945 150.638 25.0803C151.016 24.0561 151.205 22.8778 151.205 21.5455C151.205 20.223 151.021 19.0597 150.653 18.0554C150.285 17.0511 149.743 16.2656 149.027 15.6989C148.311 15.1321 147.431 14.8487 146.387 14.8487C145.353 14.8487 144.478 15.1222 143.762 15.669C143.056 16.2159 142.514 16.9915 142.136 17.9957C141.759 19 141.57 20.1832 141.57 21.5455ZM161.932 33V10.0909H168.286V33H161.932ZM165.124 7.13778C164.179 7.13778 163.369 6.82457 162.693 6.19815C162.026 5.56179 161.693 4.80114 161.693 3.91619C161.693 3.04119 162.026 2.29048 162.693 1.66406C163.369 1.0277 164.179 0.709515 165.124 0.709515C166.068 0.709515 166.874 1.0277 167.54 1.66406C168.216 2.29048 168.554 3.04119 168.554 3.91619C168.554 4.80114 168.216 5.56179 167.54 6.19815C166.874 6.82457 166.068 7.13778 165.124 7.13778ZM183.816 33.4474C181.459 33.4474 179.431 32.9702 177.73 32.0156C176.04 31.0511 174.738 29.6889 173.823 27.929C172.908 26.1591 172.451 24.0661 172.451 21.6499C172.451 19.2933 172.908 17.2251 173.823 15.4453C174.738 13.6655 176.025 12.2784 177.686 11.2841C179.356 10.2898 181.315 9.79261 183.562 9.79261C185.074 9.79261 186.48 10.0362 187.783 10.5234C189.096 11.0007 190.239 11.7216 191.213 12.6861C192.198 13.6506 192.963 14.8636 193.51 16.3253C194.057 17.777 194.331 19.4773 194.331 21.4261V23.1712H174.986V19.2337H188.35C188.35 18.3189 188.151 17.5085 187.753 16.8026C187.355 16.0966 186.804 15.5447 186.098 15.147C185.402 14.7393 184.591 14.5355 183.667 14.5355C182.702 14.5355 181.847 14.7592 181.101 15.2067C180.365 15.6442 179.789 16.2358 179.371 16.9815C178.953 17.7173 178.74 18.5376 178.73 19.4425V23.1861C178.73 24.3196 178.939 25.299 179.356 26.1243C179.784 26.9496 180.385 27.5859 181.161 28.0334C181.936 28.4808 182.856 28.7045 183.92 28.7045C184.626 28.7045 185.272 28.6051 185.859 28.4062C186.446 28.2074 186.948 27.9091 187.365 27.5114C187.783 27.1136 188.101 26.6264 188.32 26.0497L194.196 26.4375C193.898 27.8494 193.287 29.0824 192.362 30.1364C191.447 31.1804 190.264 31.9957 188.812 32.5824C187.37 33.1591 185.705 33.4474 183.816 33.4474ZM198.477 33V10.0909H204.637V14.0881H204.875C205.293 12.6662 205.994 11.5923 206.978 10.8665C207.963 10.1307 209.096 9.76278 210.379 9.76278C210.697 9.76278 211.04 9.78267 211.408 9.82244C211.776 9.86222 212.099 9.9169 212.377 9.9865V15.6243C212.079 15.5348 211.667 15.4553 211.14 15.3857C210.613 15.3161 210.13 15.2812 209.693 15.2812C208.758 15.2812 207.923 15.4851 207.187 15.8928C206.461 16.2905 205.885 16.8473 205.457 17.5632C205.039 18.2791 204.831 19.1044 204.831 20.0391V33H198.477Z" fill="black"/>
<path d="M219.376 33.3878C218.392 33.3878 217.547 33.0398 216.841 32.3438C216.145 31.6378 215.797 30.7926 215.797 29.8082C215.797 28.8338 216.145 27.9986 216.841 27.3026C217.547 26.6065 218.392 26.2585 219.376 26.2585C220.331 26.2585 221.166 26.6065 221.882 27.3026C222.598 27.9986 222.956 28.8338 222.956 29.8082C222.956 30.4645 222.787 31.0661 222.449 31.6129C222.121 32.1499 221.688 32.5824 221.151 32.9105C220.614 33.2287 220.023 33.3878 219.376 33.3878Z" fill="#0094FF"/>
</svg>
